<mxfile host="Electron" modified="2024-06-23T20:19:56.629Z" agent="Mozilla/5.0 (Windows NT 10.0; Win64; x64) AppleWebKit/537.36 (KHTML, like Gecko) draw.io/24.6.1 Chrome/124.0.6367.207 Electron/30.0.6 Safari/537.36" etag="nVsNwU5WokSmLCf9hiGQ" version="24.6.1" type="device" pages="3">
  <diagram name="Page-1" id="b5b7bab2-c9e2-2cf4-8b2a-24fd1a2a6d21">
    <mxGraphModel dx="223" dy="629" grid="0" gridSize="10" guides="1" tooltips="1" connect="1" arrows="1" fold="1" page="1" pageScale="1" pageWidth="827" pageHeight="1169" background="none" math="0" shadow="0">
      <root>
        <mxCell id="0" />
        <mxCell id="1" parent="0" />
        <mxCell id="4JzMhQODkQVSNdYVXsnZ-8" value="" style="shape=folder;fontStyle=1;spacingTop=10;tabWidth=194;tabHeight=22;tabPosition=left;html=1;rounded=0;shadow=0;comic=0;labelBackgroundColor=none;strokeWidth=1;fillColor=none;fontFamily=Verdana;fontSize=10;align=center;" parent="1" vertex="1">
          <mxGeometry x="920" y="270" width="580" height="510" as="geometry" />
        </mxCell>
        <mxCell id="4JzMhQODkQVSNdYVXsnZ-10" value="PKG Gói tổng quan" style="shape=umlFrame;whiteSpace=wrap;html=1;pointerEvents=0;width=130;height=50;" parent="1" vertex="1">
          <mxGeometry x="850" y="210" width="680" height="590" as="geometry" />
        </mxCell>
        <mxCell id="4JzMhQODkQVSNdYVXsnZ-11" value="src" style="text;html=1;align=center;verticalAlign=middle;resizable=0;points=[];autosize=1;strokeColor=none;fillColor=none;" parent="1" vertex="1">
          <mxGeometry x="1170" y="300" width="40" height="30" as="geometry" />
        </mxCell>
        <mxCell id="4JzMhQODkQVSNdYVXsnZ-12" value="" style="shape=folder;fontStyle=1;spacingTop=10;tabWidth=194;tabHeight=22;tabPosition=left;html=1;rounded=0;shadow=0;comic=0;labelBackgroundColor=none;strokeWidth=1;fillColor=none;fontFamily=Verdana;fontSize=10;align=center;" parent="1" vertex="1">
          <mxGeometry x="950" y="330" width="530" height="430" as="geometry" />
        </mxCell>
        <mxCell id="4JzMhQODkQVSNdYVXsnZ-13" value="main" style="text;html=1;align=center;verticalAlign=middle;resizable=0;points=[];autosize=1;strokeColor=none;fillColor=none;" parent="1" vertex="1">
          <mxGeometry x="1165" y="370" width="50" height="30" as="geometry" />
        </mxCell>
        <mxCell id="4JzMhQODkQVSNdYVXsnZ-14" value="" style="shape=folder;fontStyle=1;spacingTop=10;tabWidth=194;tabHeight=22;tabPosition=left;html=1;rounded=0;shadow=0;comic=0;labelBackgroundColor=none;strokeWidth=1;fillColor=none;fontFamily=Verdana;fontSize=10;align=center;" parent="1" vertex="1">
          <mxGeometry x="980" y="400" width="470" height="260" as="geometry" />
        </mxCell>
        <mxCell id="4JzMhQODkQVSNdYVXsnZ-15" value="nhahang" style="text;html=1;align=center;verticalAlign=middle;resizable=0;points=[];autosize=1;strokeColor=none;fillColor=none;" parent="1" vertex="1">
          <mxGeometry x="1155" y="428" width="70" height="30" as="geometry" />
        </mxCell>
        <mxCell id="4JzMhQODkQVSNdYVXsnZ-20" value="" style="shape=folder;fontStyle=1;spacingTop=10;tabWidth=51;tabHeight=12;tabPosition=left;html=1;rounded=0;shadow=0;comic=0;labelBackgroundColor=none;strokeWidth=1;fillColor=none;fontFamily=Verdana;fontSize=10;align=center;" parent="1" vertex="1">
          <mxGeometry x="1241" y="460" width="80.5" height="60" as="geometry" />
        </mxCell>
        <mxCell id="4JzMhQODkQVSNdYVXsnZ-21" value="service" style="text;html=1;align=center;verticalAlign=middle;resizable=0;points=[];autosize=1;strokeColor=none;fillColor=none;" parent="1" vertex="1">
          <mxGeometry x="1251.25" y="475" width="60" height="30" as="geometry" />
        </mxCell>
        <mxCell id="4JzMhQODkQVSNdYVXsnZ-22" value="" style="shape=folder;fontStyle=1;spacingTop=10;tabWidth=51;tabHeight=12;tabPosition=left;html=1;rounded=0;shadow=0;comic=0;labelBackgroundColor=none;strokeWidth=1;fillColor=none;fontFamily=Verdana;fontSize=10;align=center;" parent="1" vertex="1">
          <mxGeometry x="1350" y="460" width="80.5" height="60" as="geometry" />
        </mxCell>
        <mxCell id="4JzMhQODkQVSNdYVXsnZ-23" value="util" style="text;html=1;align=center;verticalAlign=middle;resizable=0;points=[];autosize=1;strokeColor=none;fillColor=none;" parent="1" vertex="1">
          <mxGeometry x="1370.25" y="475" width="40" height="30" as="geometry" />
        </mxCell>
        <mxCell id="4JzMhQODkQVSNdYVXsnZ-28" style="rounded=0;html=1;dashed=1;labelBackgroundColor=none;startFill=0;endArrow=open;endFill=0;endSize=10;fontFamily=Verdana;fontSize=10;exitX=0;exitY=0;exitDx=80.5;exitDy=36;exitPerimeter=0;entryX=0;entryY=0;entryDx=0;entryDy=36;entryPerimeter=0;" parent="1" source="4JzMhQODkQVSNdYVXsnZ-16" target="4JzMhQODkQVSNdYVXsnZ-19" edge="1">
          <mxGeometry relative="1" as="geometry">
            <mxPoint x="1100.1" y="490" as="sourcePoint" />
            <mxPoint x="1100.1" y="540" as="targetPoint" />
          </mxGeometry>
        </mxCell>
        <mxCell id="4JzMhQODkQVSNdYVXsnZ-29" style="rounded=0;html=1;dashed=1;labelBackgroundColor=none;startFill=0;endArrow=open;endFill=0;endSize=10;fontFamily=Verdana;fontSize=10;exitX=0;exitY=0;exitDx=80.5;exitDy=36;exitPerimeter=0;entryX=0;entryY=0;entryDx=0;entryDy=36;entryPerimeter=0;" parent="1" source="4JzMhQODkQVSNdYVXsnZ-19" target="4JzMhQODkQVSNdYVXsnZ-20" edge="1">
          <mxGeometry relative="1" as="geometry">
            <mxPoint x="1090" y="506" as="sourcePoint" />
            <mxPoint x="1140" y="506" as="targetPoint" />
          </mxGeometry>
        </mxCell>
        <mxCell id="4JzMhQODkQVSNdYVXsnZ-30" style="rounded=0;html=1;dashed=1;labelBackgroundColor=none;startFill=0;endArrow=open;endFill=0;endSize=10;fontFamily=Verdana;fontSize=10;edgeStyle=elbowEdgeStyle;exitX=0;exitY=0;exitDx=80.5;exitDy=36;exitPerimeter=0;entryX=0;entryY=0;entryDx=0;entryDy=36;entryPerimeter=0;" parent="1" source="4JzMhQODkQVSNdYVXsnZ-20" target="4JzMhQODkQVSNdYVXsnZ-22" edge="1">
          <mxGeometry relative="1" as="geometry">
            <mxPoint x="1100" y="516" as="sourcePoint" />
            <mxPoint x="1150" y="516" as="targetPoint" />
          </mxGeometry>
        </mxCell>
        <mxCell id="4JzMhQODkQVSNdYVXsnZ-31" style="rounded=0;html=1;dashed=1;labelBackgroundColor=none;startFill=0;endArrow=open;endFill=0;endSize=10;fontFamily=Verdana;fontSize=10;exitX=0.5;exitY=1;exitDx=0;exitDy=0;exitPerimeter=0;entryX=0;entryY=0;entryDx=25.5;entryDy=0;entryPerimeter=0;" parent="1" source="4JzMhQODkQVSNdYVXsnZ-20" target="4JzMhQODkQVSNdYVXsnZ-24" edge="1">
          <mxGeometry relative="1" as="geometry">
            <mxPoint x="1110" y="526" as="sourcePoint" />
            <mxPoint x="1317" y="597" as="targetPoint" />
          </mxGeometry>
        </mxCell>
        <mxCell id="4JzMhQODkQVSNdYVXsnZ-32" style="rounded=0;html=1;dashed=1;labelBackgroundColor=none;startFill=0;endArrow=open;endFill=0;endSize=10;fontFamily=Verdana;fontSize=10;edgeStyle=elbowEdgeStyle;exitX=-0.048;exitY=0.733;exitDx=0;exitDy=0;exitPerimeter=0;entryX=0;entryY=0;entryDx=80.5;entryDy=36;entryPerimeter=0;" parent="1" source="4JzMhQODkQVSNdYVXsnZ-25" target="4JzMhQODkQVSNdYVXsnZ-26" edge="1">
          <mxGeometry relative="1" as="geometry">
            <mxPoint x="1120" y="536" as="sourcePoint" />
            <mxPoint x="1170" y="536" as="targetPoint" />
          </mxGeometry>
        </mxCell>
        <mxCell id="4JzMhQODkQVSNdYVXsnZ-33" style="rounded=0;html=1;dashed=1;labelBackgroundColor=none;startFill=0;endArrow=open;endFill=0;fontFamily=Verdana;fontSize=10;exitX=0.5;exitY=1;exitDx=0;exitDy=0;exitPerimeter=0;entryX=0;entryY=0;entryDx=80.5;entryDy=36;entryPerimeter=0;" parent="1" source="4JzMhQODkQVSNdYVXsnZ-20" target="4JzMhQODkQVSNdYVXsnZ-16" edge="1">
          <mxGeometry relative="1" as="geometry">
            <mxPoint x="1130" y="546" as="sourcePoint" />
            <mxPoint x="1180" y="546" as="targetPoint" />
          </mxGeometry>
        </mxCell>
        <mxCell id="4JzMhQODkQVSNdYVXsnZ-35" value="" style="group" parent="1" vertex="1" connectable="0">
          <mxGeometry x="1070.5" y="585" width="80.5" height="60" as="geometry" />
        </mxCell>
        <mxCell id="4JzMhQODkQVSNdYVXsnZ-26" value="" style="shape=folder;fontStyle=1;spacingTop=10;tabWidth=51;tabHeight=12;tabPosition=left;html=1;rounded=0;shadow=0;comic=0;labelBackgroundColor=none;strokeWidth=1;fillColor=none;fontFamily=Verdana;fontSize=10;align=center;" parent="4JzMhQODkQVSNdYVXsnZ-35" vertex="1">
          <mxGeometry width="80.5" height="60" as="geometry" />
        </mxCell>
        <mxCell id="4JzMhQODkQVSNdYVXsnZ-27" value="entity" style="text;html=1;align=center;verticalAlign=middle;resizable=0;points=[];autosize=1;strokeColor=none;fillColor=none;" parent="4JzMhQODkQVSNdYVXsnZ-35" vertex="1">
          <mxGeometry x="15.25" y="15" width="50" height="30" as="geometry" />
        </mxCell>
        <mxCell id="4JzMhQODkQVSNdYVXsnZ-36" value="" style="group" parent="1" vertex="1" connectable="0">
          <mxGeometry x="1244" y="585" width="80.5" height="60" as="geometry" />
        </mxCell>
        <mxCell id="4JzMhQODkQVSNdYVXsnZ-24" value="" style="shape=folder;fontStyle=1;spacingTop=10;tabWidth=51;tabHeight=12;tabPosition=left;html=1;rounded=0;shadow=0;comic=0;labelBackgroundColor=none;strokeWidth=1;fillColor=none;fontFamily=Verdana;fontSize=10;align=center;" parent="4JzMhQODkQVSNdYVXsnZ-36" vertex="1">
          <mxGeometry width="80.5" height="60" as="geometry" />
        </mxCell>
        <mxCell id="4JzMhQODkQVSNdYVXsnZ-25" value="repository" style="text;html=1;align=center;verticalAlign=middle;resizable=0;points=[];autosize=1;strokeColor=none;fillColor=none;" parent="4JzMhQODkQVSNdYVXsnZ-36" vertex="1">
          <mxGeometry y="15" width="80" height="30" as="geometry" />
        </mxCell>
        <mxCell id="4JzMhQODkQVSNdYVXsnZ-37" value="" style="group" parent="1" vertex="1" connectable="0">
          <mxGeometry x="1100" y="460" width="80.25" height="57" as="geometry" />
        </mxCell>
        <mxCell id="4JzMhQODkQVSNdYVXsnZ-18" value="controller" style="text;html=1;align=center;verticalAlign=middle;resizable=0;points=[];autosize=1;strokeColor=none;fillColor=none;" parent="4JzMhQODkQVSNdYVXsnZ-37" vertex="1">
          <mxGeometry x="5.119999999999891" y="20" width="70" height="30" as="geometry" />
        </mxCell>
        <mxCell id="4JzMhQODkQVSNdYVXsnZ-19" value="" style="shape=folder;fontStyle=1;spacingTop=10;tabWidth=51;tabHeight=12;tabPosition=left;html=1;rounded=0;shadow=0;comic=0;labelBackgroundColor=none;strokeWidth=1;fillColor=none;fontFamily=Verdana;fontSize=10;align=center;" parent="4JzMhQODkQVSNdYVXsnZ-37" vertex="1">
          <mxGeometry width="80.25" height="57" as="geometry" />
        </mxCell>
        <mxCell id="4JzMhQODkQVSNdYVXsnZ-38" value="" style="group" parent="1" vertex="1" connectable="0">
          <mxGeometry x="990" y="510" width="80.5" height="60" as="geometry" />
        </mxCell>
        <mxCell id="4JzMhQODkQVSNdYVXsnZ-16" value="" style="shape=folder;fontStyle=1;spacingTop=10;tabWidth=51;tabHeight=12;tabPosition=left;html=1;rounded=0;shadow=0;comic=0;labelBackgroundColor=none;strokeWidth=1;fillColor=none;fontFamily=Verdana;fontSize=10;align=center;" parent="4JzMhQODkQVSNdYVXsnZ-38" vertex="1">
          <mxGeometry width="80.5" height="60" as="geometry" />
        </mxCell>
        <mxCell id="4JzMhQODkQVSNdYVXsnZ-17" value="model" style="text;html=1;align=center;verticalAlign=middle;resizable=0;points=[];autosize=1;strokeColor=none;fillColor=none;" parent="4JzMhQODkQVSNdYVXsnZ-38" vertex="1">
          <mxGeometry x="10.25" y="20" width="60" height="30" as="geometry" />
        </mxCell>
        <mxCell id="4JzMhQODkQVSNdYVXsnZ-40" value="" style="group" parent="1" vertex="1" connectable="0">
          <mxGeometry x="1200" y="690" width="80.5" height="60" as="geometry" />
        </mxCell>
        <mxCell id="4JzMhQODkQVSNdYVXsnZ-41" value="" style="shape=folder;fontStyle=1;spacingTop=10;tabWidth=51;tabHeight=12;tabPosition=left;html=1;rounded=0;shadow=0;comic=0;labelBackgroundColor=none;strokeWidth=1;fillColor=none;fontFamily=Verdana;fontSize=10;align=center;" parent="4JzMhQODkQVSNdYVXsnZ-40" vertex="1">
          <mxGeometry width="80.5" height="60" as="geometry" />
        </mxCell>
        <mxCell id="4JzMhQODkQVSNdYVXsnZ-42" value="resources" style="text;html=1;align=center;verticalAlign=middle;resizable=0;points=[];autosize=1;strokeColor=none;fillColor=none;" parent="4JzMhQODkQVSNdYVXsnZ-40" vertex="1">
          <mxGeometry y="15" width="80" height="30" as="geometry" />
        </mxCell>
        <mxCell id="4JzMhQODkQVSNdYVXsnZ-43" style="rounded=0;html=1;dashed=1;labelBackgroundColor=none;startFill=0;endArrow=open;endFill=0;endSize=10;fontFamily=Verdana;fontSize=10;exitX=0.531;exitY=1.003;exitDx=0;exitDy=0;exitPerimeter=0;entryX=0;entryY=0;entryDx=25.5;entryDy=0;entryPerimeter=0;" parent="1" source="4JzMhQODkQVSNdYVXsnZ-14" target="4JzMhQODkQVSNdYVXsnZ-41" edge="1">
          <mxGeometry relative="1" as="geometry">
            <mxPoint x="1191" y="506" as="sourcePoint" />
            <mxPoint x="1251" y="506" as="targetPoint" />
          </mxGeometry>
        </mxCell>
        <mxCell id="oFdnpSWpgDQZsyOlXC8S-4" value="" style="group" parent="1" vertex="1" connectable="0">
          <mxGeometry x="997" y="435" width="80.25" height="57" as="geometry" />
        </mxCell>
        <mxCell id="oFdnpSWpgDQZsyOlXC8S-5" value="security" style="text;html=1;align=center;verticalAlign=middle;resizable=0;points=[];autosize=1;strokeColor=none;fillColor=none;" parent="oFdnpSWpgDQZsyOlXC8S-4" vertex="1">
          <mxGeometry x="11.11999999999989" y="22" width="59" height="26" as="geometry" />
        </mxCell>
        <mxCell id="oFdnpSWpgDQZsyOlXC8S-6" value="" style="shape=folder;fontStyle=1;spacingTop=10;tabWidth=51;tabHeight=12;tabPosition=left;html=1;rounded=0;shadow=0;comic=0;labelBackgroundColor=none;strokeWidth=1;fillColor=none;fontFamily=Verdana;fontSize=10;align=center;" parent="oFdnpSWpgDQZsyOlXC8S-4" vertex="1">
          <mxGeometry width="80.25" height="57" as="geometry" />
        </mxCell>
        <mxCell id="oFdnpSWpgDQZsyOlXC8S-7" style="rounded=0;html=1;dashed=1;labelBackgroundColor=none;startFill=0;endArrow=open;endFill=0;endSize=10;fontFamily=Verdana;fontSize=10;exitX=0;exitY=0;exitDx=0;exitDy=34.5;exitPerimeter=0;entryX=0;entryY=0;entryDx=80.25;entryDy=34.5;entryPerimeter=0;" parent="1" source="4JzMhQODkQVSNdYVXsnZ-19" target="oFdnpSWpgDQZsyOlXC8S-6" edge="1">
          <mxGeometry relative="1" as="geometry">
            <mxPoint x="1081" y="556" as="sourcePoint" />
            <mxPoint x="779" y="514" as="targetPoint" />
          </mxGeometry>
        </mxCell>
      </root>
    </mxGraphModel>
  </diagram>
  <diagram id="gzEQlLy_dEKHifGIq1eN" name="Page-2">
    <mxGraphModel dx="877" dy="1023" grid="1" gridSize="10" guides="1" tooltips="1" connect="1" arrows="1" fold="1" page="1" pageScale="1" pageWidth="850" pageHeight="1100" math="0" shadow="0">
      <root>
        <mxCell id="0" />
        <mxCell id="1" parent="0" />
        <mxCell id="aBskTPXPEMfPs_smfqlr-6" value="" style="shape=folder;fontStyle=1;spacingTop=10;tabWidth=194;tabHeight=22;tabPosition=left;html=1;rounded=0;shadow=0;comic=0;labelBackgroundColor=none;strokeWidth=1;fillColor=none;fontFamily=Verdana;fontSize=10;align=center;" parent="1" vertex="1">
          <mxGeometry x="940" y="410" width="1090" height="830" as="geometry" />
        </mxCell>
        <mxCell id="aBskTPXPEMfPs_smfqlr-7" value="&lt;font style=&quot;font-size: 20px;&quot;&gt;nhahang&lt;/font&gt;" style="text;html=1;align=center;verticalAlign=middle;resizable=0;points=[];autosize=1;strokeColor=none;fillColor=none;" parent="1" vertex="1">
          <mxGeometry x="1215" y="445" width="100" height="40" as="geometry" />
        </mxCell>
        <mxCell id="aBskTPXPEMfPs_smfqlr-18" value="" style="group" parent="1" vertex="1" connectable="0">
          <mxGeometry x="1250" y="900" width="210.5" height="305" as="geometry" />
        </mxCell>
        <mxCell id="aBskTPXPEMfPs_smfqlr-40" value="" style="group" parent="aBskTPXPEMfPs_smfqlr-18" vertex="1" connectable="0">
          <mxGeometry width="210.5" height="305" as="geometry" />
        </mxCell>
        <mxCell id="aBskTPXPEMfPs_smfqlr-19" value="" style="shape=folder;fontStyle=1;spacingTop=10;tabWidth=51;tabHeight=12;tabPosition=left;html=1;rounded=0;shadow=0;comic=0;labelBackgroundColor=none;strokeWidth=1;fillColor=none;fontFamily=Verdana;fontSize=10;align=center;" parent="aBskTPXPEMfPs_smfqlr-40" vertex="1">
          <mxGeometry width="210.5" height="305" as="geometry" />
        </mxCell>
        <mxCell id="aBskTPXPEMfPs_smfqlr-20" value="&lt;font style=&quot;font-size: 20px;&quot;&gt;entity&lt;/font&gt;" style="text;html=1;align=center;verticalAlign=middle;resizable=0;points=[];autosize=1;strokeColor=none;fillColor=none;" parent="aBskTPXPEMfPs_smfqlr-40" vertex="1">
          <mxGeometry x="-10.00267080745342" y="30.88235294117647" width="70" height="40" as="geometry" />
        </mxCell>
        <mxCell id="aBskTPXPEMfPs_smfqlr-53" value="&lt;p style=&quot;margin:0px;margin-top:4px;text-align:center;&quot;&gt;&lt;b&gt;Order&lt;/b&gt;&lt;/p&gt;&lt;hr size=&quot;1&quot; style=&quot;border-style:solid;&quot;&gt;&lt;div style=&quot;height:2px;&quot;&gt;&lt;/div&gt;&lt;hr size=&quot;1&quot; style=&quot;border-style:solid;&quot;&gt;&lt;div style=&quot;height:2px;&quot;&gt;&lt;br&gt;&lt;/div&gt;" style="verticalAlign=top;align=left;overflow=fill;html=1;whiteSpace=wrap;" parent="aBskTPXPEMfPs_smfqlr-40" vertex="1">
          <mxGeometry x="52.75" y="77.4876811594203" width="105" height="55.12101449275362" as="geometry" />
        </mxCell>
        <mxCell id="aBskTPXPEMfPs_smfqlr-54" value="&lt;p style=&quot;margin:0px;margin-top:4px;text-align:center;&quot;&gt;&lt;b&gt;OrderStatus&lt;/b&gt;&lt;/p&gt;&lt;hr size=&quot;1&quot; style=&quot;border-style:solid;&quot;&gt;&lt;div style=&quot;height:2px;&quot;&gt;&lt;/div&gt;&lt;hr size=&quot;1&quot; style=&quot;border-style:solid;&quot;&gt;&lt;div style=&quot;height:2px;&quot;&gt;&lt;br&gt;&lt;/div&gt;" style="verticalAlign=top;align=left;overflow=fill;html=1;whiteSpace=wrap;" parent="aBskTPXPEMfPs_smfqlr-40" vertex="1">
          <mxGeometry x="52.75" y="172.3913043478261" width="105" height="48.6231884057971" as="geometry" />
        </mxCell>
        <mxCell id="aBskTPXPEMfPs_smfqlr-57" value="" style="endArrow=diamondThin;endFill=0;endSize=24;html=1;rounded=0;exitX=0.5;exitY=0;exitDx=0;exitDy=0;entryX=0.5;entryY=1;entryDx=0;entryDy=0;" parent="aBskTPXPEMfPs_smfqlr-40" source="aBskTPXPEMfPs_smfqlr-54" target="aBskTPXPEMfPs_smfqlr-53" edge="1">
          <mxGeometry width="160" relative="1" as="geometry">
            <mxPoint x="110" y="-69.31818181818181" as="sourcePoint" />
            <mxPoint x="270" y="-69.31818181818181" as="targetPoint" />
          </mxGeometry>
        </mxCell>
        <mxCell id="qpLV9n9rlSjZgQljhwJn-33" value="&lt;p style=&quot;margin:0px;margin-top:4px;text-align:center;&quot;&gt;&lt;b&gt;OrdeDetail&lt;/b&gt;&lt;br&gt;&lt;/p&gt;&lt;hr size=&quot;1&quot; style=&quot;border-style:solid;&quot;&gt;&lt;div style=&quot;height:2px;&quot;&gt;&lt;/div&gt;&lt;hr size=&quot;1&quot; style=&quot;border-style:solid;&quot;&gt;&lt;div style=&quot;height:2px;&quot;&gt;&lt;br&gt;&lt;/div&gt;" style="verticalAlign=top;align=left;overflow=fill;html=1;whiteSpace=wrap;" parent="aBskTPXPEMfPs_smfqlr-40" vertex="1">
          <mxGeometry x="26.910000000000082" y="234.2753623188406" width="156.68" height="57.46376811594203" as="geometry" />
        </mxCell>
        <mxCell id="aBskTPXPEMfPs_smfqlr-21" value="" style="group" parent="1" vertex="1" connectable="0">
          <mxGeometry x="1640" y="960" width="280" height="280" as="geometry" />
        </mxCell>
        <mxCell id="aBskTPXPEMfPs_smfqlr-41" value="" style="group" parent="aBskTPXPEMfPs_smfqlr-21" vertex="1" connectable="0">
          <mxGeometry x="-10" y="-30" width="280" height="310" as="geometry" />
        </mxCell>
        <mxCell id="aBskTPXPEMfPs_smfqlr-22" value="" style="shape=folder;fontStyle=1;spacingTop=10;tabWidth=51;tabHeight=12;tabPosition=left;html=1;rounded=0;shadow=0;comic=0;labelBackgroundColor=none;strokeWidth=1;fillColor=none;fontFamily=Verdana;fontSize=10;align=center;" parent="aBskTPXPEMfPs_smfqlr-41" vertex="1">
          <mxGeometry x="-100" width="300" height="260" as="geometry" />
        </mxCell>
        <mxCell id="aBskTPXPEMfPs_smfqlr-23" value="&lt;font style=&quot;font-size: 20px;&quot;&gt;repository&lt;/font&gt;" style="text;html=1;align=center;verticalAlign=middle;resizable=0;points=[];autosize=1;strokeColor=none;fillColor=none;" parent="aBskTPXPEMfPs_smfqlr-41" vertex="1">
          <mxGeometry x="-15" y="15.003333333333337" width="110" height="40" as="geometry" />
        </mxCell>
        <mxCell id="aBskTPXPEMfPs_smfqlr-55" value="&lt;p style=&quot;margin:0px;margin-top:4px;text-align:center;&quot;&gt;&lt;b&gt;OrderRepository&lt;/b&gt;&lt;/p&gt;&lt;hr size=&quot;1&quot; style=&quot;border-style:solid;&quot;&gt;&lt;div style=&quot;height:2px;&quot;&gt;&lt;/div&gt;&lt;hr size=&quot;1&quot; style=&quot;border-style:solid;&quot;&gt;&lt;div style=&quot;height:2px;&quot;&gt;&lt;br&gt;&lt;/div&gt;" style="verticalAlign=top;align=left;overflow=fill;html=1;whiteSpace=wrap;" parent="aBskTPXPEMfPs_smfqlr-41" vertex="1">
          <mxGeometry x="-70" y="70" width="120" height="60" as="geometry" />
        </mxCell>
        <mxCell id="qpLV9n9rlSjZgQljhwJn-4" value="&lt;p style=&quot;margin:0px;margin-top:4px;text-align:center;&quot;&gt;&lt;b&gt;OrderDetailRepository&lt;/b&gt;&lt;/p&gt;&lt;hr size=&quot;1&quot; style=&quot;border-style:solid;&quot;&gt;&lt;div style=&quot;height:2px;&quot;&gt;&lt;/div&gt;&lt;hr size=&quot;1&quot; style=&quot;border-style:solid;&quot;&gt;&lt;div style=&quot;height:2px;&quot;&gt;&lt;br&gt;&lt;/div&gt;" style="verticalAlign=top;align=left;overflow=fill;html=1;whiteSpace=wrap;" parent="aBskTPXPEMfPs_smfqlr-41" vertex="1">
          <mxGeometry x="20" y="160" width="150" height="60" as="geometry" />
        </mxCell>
        <mxCell id="aBskTPXPEMfPs_smfqlr-27" value="" style="group" parent="1" vertex="1" connectable="0">
          <mxGeometry x="1000" y="570" width="289.5" height="315" as="geometry" />
        </mxCell>
        <mxCell id="aBskTPXPEMfPs_smfqlr-39" value="" style="group" parent="aBskTPXPEMfPs_smfqlr-27" vertex="1" connectable="0">
          <mxGeometry x="-14" width="289.5" height="315" as="geometry" />
        </mxCell>
        <mxCell id="aBskTPXPEMfPs_smfqlr-28" value="" style="shape=folder;fontStyle=1;spacingTop=10;tabWidth=51;tabHeight=12;tabPosition=left;html=1;rounded=0;shadow=0;comic=0;labelBackgroundColor=none;strokeWidth=1;fillColor=none;fontFamily=Verdana;fontSize=10;align=center;" parent="aBskTPXPEMfPs_smfqlr-39" vertex="1">
          <mxGeometry width="289.49999999999994" height="315" as="geometry" />
        </mxCell>
        <mxCell id="aBskTPXPEMfPs_smfqlr-29" value="&lt;font style=&quot;font-size: 20px;&quot;&gt;model&lt;/font&gt;" style="text;html=1;align=center;verticalAlign=middle;resizable=0;points=[];autosize=1;strokeColor=none;fillColor=none;" parent="aBskTPXPEMfPs_smfqlr-39" vertex="1">
          <mxGeometry x="-10.001198757763982" y="21.62711267605635" width="80" height="40" as="geometry" />
        </mxCell>
        <mxCell id="aBskTPXPEMfPs_smfqlr-50" value="&lt;p style=&quot;margin:0px;margin-top:4px;text-align:center;&quot;&gt;&lt;b&gt;CreateOrdeRequest&lt;/b&gt;&lt;br&gt;&lt;/p&gt;&lt;hr size=&quot;1&quot; style=&quot;border-style:solid;&quot;&gt;&lt;div style=&quot;height:2px;&quot;&gt;&lt;/div&gt;&lt;hr size=&quot;1&quot; style=&quot;border-style:solid;&quot;&gt;&lt;div style=&quot;height:2px;&quot;&gt;&lt;br&gt;&lt;/div&gt;" style="verticalAlign=top;align=left;overflow=fill;html=1;whiteSpace=wrap;" parent="aBskTPXPEMfPs_smfqlr-39" vertex="1">
          <mxGeometry x="13.32" y="65" width="156.68" height="65" as="geometry" />
        </mxCell>
        <mxCell id="qpLV9n9rlSjZgQljhwJn-11" value="&lt;p style=&quot;margin:0px;margin-top:4px;text-align:center;&quot;&gt;&lt;b&gt;CreateOrdeDetailRequest&lt;/b&gt;&lt;br&gt;&lt;/p&gt;&lt;hr size=&quot;1&quot; style=&quot;border-style:solid;&quot;&gt;&lt;div style=&quot;height:2px;&quot;&gt;&lt;/div&gt;&lt;hr size=&quot;1&quot; style=&quot;border-style:solid;&quot;&gt;&lt;div style=&quot;height:2px;&quot;&gt;&lt;br&gt;&lt;/div&gt;" style="verticalAlign=top;align=left;overflow=fill;html=1;whiteSpace=wrap;" parent="aBskTPXPEMfPs_smfqlr-39" vertex="1">
          <mxGeometry x="19.5" y="175" width="156.68" height="65" as="geometry" />
        </mxCell>
        <mxCell id="aBskTPXPEMfPs_smfqlr-38" value="" style="group" parent="1" vertex="1" connectable="0">
          <mxGeometry x="1690" y="550" width="310" height="330" as="geometry" />
        </mxCell>
        <mxCell id="aBskTPXPEMfPs_smfqlr-8" value="" style="shape=folder;fontStyle=1;spacingTop=10;tabWidth=51;tabHeight=12;tabPosition=left;html=1;rounded=0;shadow=0;comic=0;labelBackgroundColor=none;strokeWidth=1;fillColor=none;fontFamily=Verdana;fontSize=10;align=center;" parent="aBskTPXPEMfPs_smfqlr-38" vertex="1">
          <mxGeometry width="310" height="330" as="geometry" />
        </mxCell>
        <mxCell id="aBskTPXPEMfPs_smfqlr-9" value="&lt;font style=&quot;font-size: 20px;&quot;&gt;service&lt;/font&gt;" style="text;html=1;align=center;verticalAlign=middle;resizable=0;points=[];autosize=1;strokeColor=none;fillColor=none;" parent="aBskTPXPEMfPs_smfqlr-38" vertex="1">
          <mxGeometry x="3.8017751479289963" y="24.11764705882353" width="90" height="40" as="geometry" />
        </mxCell>
        <mxCell id="aBskTPXPEMfPs_smfqlr-52" value="&lt;p style=&quot;margin:0px;margin-top:4px;text-align:center;&quot;&gt;&lt;b&gt;&amp;lt;&amp;lt;interface&amp;gt;&amp;gt;&lt;/b&gt;&lt;/p&gt;&lt;p style=&quot;margin:0px;margin-top:4px;text-align:center;&quot;&gt;&lt;b&gt;OrderService&lt;/b&gt;&lt;/p&gt;&lt;hr size=&quot;1&quot; style=&quot;border-style:solid;&quot;&gt;&lt;div style=&quot;height:2px;&quot;&gt;&lt;/div&gt;&lt;hr size=&quot;1&quot; style=&quot;border-style:solid;&quot;&gt;&lt;div style=&quot;height:2px;&quot;&gt;&lt;br&gt;&lt;/div&gt;" style="verticalAlign=top;align=left;overflow=fill;html=1;whiteSpace=wrap;" parent="aBskTPXPEMfPs_smfqlr-38" vertex="1">
          <mxGeometry x="69.75" y="59.12" width="120.25" height="80.88" as="geometry" />
        </mxCell>
        <mxCell id="gT_heq0BcRv_RPXSR07k-5" value="&lt;p style=&quot;margin:0px;margin-top:4px;text-align:center;&quot;&gt;&lt;b style=&quot;background-color: initial;&quot;&gt;OrderServiceImlp&lt;/b&gt;&lt;br&gt;&lt;/p&gt;&lt;hr size=&quot;1&quot; style=&quot;border-style:solid;&quot;&gt;&lt;div style=&quot;height:2px;&quot;&gt;&lt;/div&gt;&lt;hr size=&quot;1&quot; style=&quot;border-style:solid;&quot;&gt;&lt;div style=&quot;height:2px;&quot;&gt;&lt;br&gt;&lt;/div&gt;" style="verticalAlign=top;align=left;overflow=fill;html=1;whiteSpace=wrap;" parent="aBskTPXPEMfPs_smfqlr-38" vertex="1">
          <mxGeometry x="69.75" y="190" width="120.25" height="60" as="geometry" />
        </mxCell>
        <mxCell id="gT_heq0BcRv_RPXSR07k-9" value="" style="endArrow=block;endFill=0;endSize=12;html=1;rounded=0;exitX=0.5;exitY=0;exitDx=0;exitDy=0;entryX=0.5;entryY=1;entryDx=0;entryDy=0;dashed=1;" parent="aBskTPXPEMfPs_smfqlr-38" source="gT_heq0BcRv_RPXSR07k-5" target="aBskTPXPEMfPs_smfqlr-52" edge="1">
          <mxGeometry width="160" relative="1" as="geometry">
            <mxPoint x="-190" y="30" as="sourcePoint" />
            <mxPoint x="80" y="130" as="targetPoint" />
          </mxGeometry>
        </mxCell>
        <mxCell id="aBskTPXPEMfPs_smfqlr-44" value="" style="group" parent="1" vertex="1" connectable="0">
          <mxGeometry x="1330" y="490" width="320" height="290" as="geometry" />
        </mxCell>
        <mxCell id="aBskTPXPEMfPs_smfqlr-25" value="&lt;font style=&quot;font-size: 20px;&quot;&gt;controller&lt;/font&gt;" style="text;html=1;align=center;verticalAlign=middle;resizable=0;points=[];autosize=1;strokeColor=none;fillColor=none;" parent="aBskTPXPEMfPs_smfqlr-44" vertex="1">
          <mxGeometry x="-20" y="23.517976128846637" width="110" height="40" as="geometry" />
        </mxCell>
        <mxCell id="aBskTPXPEMfPs_smfqlr-26" value="" style="shape=folder;fontStyle=1;spacingTop=10;tabWidth=51;tabHeight=12;tabPosition=left;html=1;rounded=0;shadow=0;comic=0;labelBackgroundColor=none;strokeWidth=1;fillColor=none;fontFamily=Verdana;fontSize=10;align=center;" parent="aBskTPXPEMfPs_smfqlr-44" vertex="1">
          <mxGeometry x="-20.0035462183696" width="319.99354621836954" height="290" as="geometry" />
        </mxCell>
        <mxCell id="aBskTPXPEMfPs_smfqlr-45" value="&lt;p style=&quot;margin:0px;margin-top:4px;text-align:center;&quot;&gt;&lt;b&gt;OrderController&lt;/b&gt;&lt;/p&gt;&lt;hr size=&quot;1&quot; style=&quot;border-style:solid;&quot;&gt;&lt;div style=&quot;height:2px;&quot;&gt;&lt;/div&gt;&lt;hr size=&quot;1&quot; style=&quot;border-style:solid;&quot;&gt;&lt;div style=&quot;height:2px;&quot;&gt;&lt;br&gt;&lt;/div&gt;" style="verticalAlign=top;align=left;overflow=fill;html=1;whiteSpace=wrap;" parent="aBskTPXPEMfPs_smfqlr-44" vertex="1">
          <mxGeometry x="50" y="60" width="140" height="60" as="geometry" />
        </mxCell>
        <mxCell id="qpLV9n9rlSjZgQljhwJn-1" value="&lt;p style=&quot;margin:0px;margin-top:4px;text-align:center;&quot;&gt;&lt;b&gt;OrderDetailController&lt;/b&gt;&lt;/p&gt;&lt;hr size=&quot;1&quot; style=&quot;border-style:solid;&quot;&gt;&lt;div style=&quot;height:2px;&quot;&gt;&lt;/div&gt;&lt;hr size=&quot;1&quot; style=&quot;border-style:solid;&quot;&gt;&lt;div style=&quot;height:2px;&quot;&gt;&lt;br&gt;&lt;/div&gt;" style="verticalAlign=top;align=left;overflow=fill;html=1;whiteSpace=wrap;" parent="aBskTPXPEMfPs_smfqlr-44" vertex="1">
          <mxGeometry x="50" y="160" width="140" height="60" as="geometry" />
        </mxCell>
        <mxCell id="qpLV9n9rlSjZgQljhwJn-12" value="" style="endArrow=none;html=1;rounded=0;exitX=0.5;exitY=0;exitDx=0;exitDy=0;entryX=0.5;entryY=1;entryDx=0;entryDy=0;" parent="aBskTPXPEMfPs_smfqlr-44" source="qpLV9n9rlSjZgQljhwJn-1" target="aBskTPXPEMfPs_smfqlr-45" edge="1">
          <mxGeometry width="50" height="50" relative="1" as="geometry">
            <mxPoint x="-10" y="340" as="sourcePoint" />
            <mxPoint x="40" y="290" as="targetPoint" />
          </mxGeometry>
        </mxCell>
        <mxCell id="aBskTPXPEMfPs_smfqlr-56" value="" style="endArrow=block;endFill=0;endSize=12;html=1;rounded=0;exitX=1;exitY=0.5;exitDx=0;exitDy=0;entryX=0;entryY=0.5;entryDx=0;entryDy=0;dashed=1;" parent="1" source="aBskTPXPEMfPs_smfqlr-45" target="aBskTPXPEMfPs_smfqlr-52" edge="1">
          <mxGeometry width="160" relative="1" as="geometry">
            <mxPoint x="1040" y="680" as="sourcePoint" />
            <mxPoint x="1200" y="680" as="targetPoint" />
          </mxGeometry>
        </mxCell>
        <mxCell id="qpLV9n9rlSjZgQljhwJn-13" value="" style="endArrow=block;endFill=0;endSize=12;html=1;rounded=0;exitX=1;exitY=0.5;exitDx=0;exitDy=0;entryX=0;entryY=0.75;entryDx=0;entryDy=0;dashed=1;" parent="1" source="qpLV9n9rlSjZgQljhwJn-1" target="aBskTPXPEMfPs_smfqlr-52" edge="1">
          <mxGeometry width="160" relative="1" as="geometry">
            <mxPoint x="1530" y="590" as="sourcePoint" />
            <mxPoint x="1780" y="790" as="targetPoint" />
          </mxGeometry>
        </mxCell>
        <mxCell id="qpLV9n9rlSjZgQljhwJn-38" value="" style="endArrow=none;html=1;rounded=0;exitX=1;exitY=0.5;exitDx=0;exitDy=0;entryX=0;entryY=0.5;entryDx=0;entryDy=0;" parent="1" source="aBskTPXPEMfPs_smfqlr-53" target="aBskTPXPEMfPs_smfqlr-55" edge="1">
          <mxGeometry width="50" height="50" relative="1" as="geometry">
            <mxPoint x="1520" y="1050" as="sourcePoint" />
            <mxPoint x="1570" y="1000" as="targetPoint" />
          </mxGeometry>
        </mxCell>
        <mxCell id="qpLV9n9rlSjZgQljhwJn-39" value="" style="endArrow=none;html=1;rounded=0;exitX=1;exitY=0.5;exitDx=0;exitDy=0;entryX=0;entryY=0.5;entryDx=0;entryDy=0;" parent="1" source="qpLV9n9rlSjZgQljhwJn-33" target="qpLV9n9rlSjZgQljhwJn-4" edge="1">
          <mxGeometry width="50" height="50" relative="1" as="geometry">
            <mxPoint x="1520" y="1050" as="sourcePoint" />
            <mxPoint x="1570" y="1000" as="targetPoint" />
          </mxGeometry>
        </mxCell>
        <mxCell id="qpLV9n9rlSjZgQljhwJn-40" value="" style="endArrow=open;dashed=1;endFill=0;endSize=12;html=1;rounded=0;exitX=0.5;exitY=0;exitDx=0;exitDy=0;entryX=0.25;entryY=1;entryDx=0;entryDy=0;" parent="1" source="aBskTPXPEMfPs_smfqlr-55" target="gT_heq0BcRv_RPXSR07k-5" edge="1">
          <mxGeometry width="160" relative="1" as="geometry">
            <mxPoint x="1460" y="1030" as="sourcePoint" />
            <mxPoint x="1620" y="1030" as="targetPoint" />
          </mxGeometry>
        </mxCell>
        <mxCell id="qpLV9n9rlSjZgQljhwJn-41" value="" style="endArrow=open;dashed=1;endFill=0;endSize=12;html=1;rounded=0;exitX=0.5;exitY=0;exitDx=0;exitDy=0;entryX=0.695;entryY=1.023;entryDx=0;entryDy=0;entryPerimeter=0;" parent="1" source="qpLV9n9rlSjZgQljhwJn-4" target="gT_heq0BcRv_RPXSR07k-5" edge="1">
          <mxGeometry width="160" relative="1" as="geometry">
            <mxPoint x="1750" y="1145" as="sourcePoint" />
            <mxPoint x="1940" y="880" as="targetPoint" />
          </mxGeometry>
        </mxCell>
        <mxCell id="qpLV9n9rlSjZgQljhwJn-43" value="" style="endArrow=open;endFill=0;endSize=12;html=1;rounded=0;exitX=1;exitY=0.25;exitDx=0;exitDy=0;entryX=0;entryY=0.5;entryDx=0;entryDy=0;" parent="1" source="qpLV9n9rlSjZgQljhwJn-11" target="qpLV9n9rlSjZgQljhwJn-1" edge="1">
          <mxGeometry width="160" relative="1" as="geometry">
            <mxPoint x="1101" y="666" as="sourcePoint" />
            <mxPoint x="1390" y="590" as="targetPoint" />
          </mxGeometry>
        </mxCell>
        <mxCell id="pWx-h4j8vHMrrHza2J1Y-1" value="" style="endArrow=open;endFill=0;endSize=12;html=1;rounded=0;exitX=1;exitY=0.25;exitDx=0;exitDy=0;entryX=0;entryY=0.25;entryDx=0;entryDy=0;" parent="1" source="aBskTPXPEMfPs_smfqlr-50" target="aBskTPXPEMfPs_smfqlr-45" edge="1">
          <mxGeometry width="160" relative="1" as="geometry">
            <mxPoint x="1310" y="730" as="sourcePoint" />
            <mxPoint x="1470" y="730" as="targetPoint" />
          </mxGeometry>
        </mxCell>
      </root>
    </mxGraphModel>
  </diagram>
  <diagram id="TBXzsD1Jy4gdsySGmbAV" name="Page-3">
    <mxGraphModel dx="445" dy="768" grid="1" gridSize="10" guides="1" tooltips="1" connect="1" arrows="1" fold="1" page="1" pageScale="1" pageWidth="850" pageHeight="1100" math="0" shadow="0">
      <root>
        <mxCell id="0" />
        <mxCell id="1" parent="0" />
        <mxCell id="cMUBH3cneGOwtmGwNx__-1" value="" style="shape=folder;fontStyle=1;spacingTop=10;tabWidth=194;tabHeight=22;tabPosition=left;html=1;rounded=0;shadow=0;comic=0;labelBackgroundColor=none;strokeWidth=1;fillColor=none;fontFamily=Verdana;fontSize=10;align=center;" vertex="1" parent="1">
          <mxGeometry x="940" y="400" width="1090" height="830" as="geometry" />
        </mxCell>
        <mxCell id="cMUBH3cneGOwtmGwNx__-2" value="&lt;font style=&quot;font-size: 20px;&quot;&gt;app&lt;/font&gt;" style="text;html=1;align=center;verticalAlign=middle;resizable=0;points=[];autosize=1;strokeColor=none;fillColor=none;" vertex="1" parent="1">
          <mxGeometry x="1235" y="445" width="60" height="40" as="geometry" />
        </mxCell>
        <mxCell id="cMUBH3cneGOwtmGwNx__-17" value="" style="group" vertex="1" connectable="0" parent="1">
          <mxGeometry x="1000" y="570" width="289.5" height="315" as="geometry" />
        </mxCell>
        <mxCell id="cMUBH3cneGOwtmGwNx__-18" value="" style="group" vertex="1" connectable="0" parent="cMUBH3cneGOwtmGwNx__-17">
          <mxGeometry x="-14" width="289.5" height="315" as="geometry" />
        </mxCell>
        <mxCell id="cMUBH3cneGOwtmGwNx__-19" value="" style="shape=folder;fontStyle=1;spacingTop=10;tabWidth=51;tabHeight=12;tabPosition=left;html=1;rounded=0;shadow=0;comic=0;labelBackgroundColor=none;strokeWidth=1;fillColor=none;fontFamily=Verdana;fontSize=10;align=center;" vertex="1" parent="cMUBH3cneGOwtmGwNx__-18">
          <mxGeometry width="289.49999999999994" height="315" as="geometry" />
        </mxCell>
        <mxCell id="cMUBH3cneGOwtmGwNx__-20" value="&lt;font style=&quot;font-size: 20px;&quot;&gt;Service&lt;/font&gt;" style="text;html=1;align=center;verticalAlign=middle;resizable=0;points=[];autosize=1;strokeColor=none;fillColor=none;" vertex="1" parent="cMUBH3cneGOwtmGwNx__-18">
          <mxGeometry x="13.318801242236018" y="19.99711267605635" width="90" height="40" as="geometry" />
        </mxCell>
        <mxCell id="cMUBH3cneGOwtmGwNx__-21" value="&lt;p style=&quot;margin:0px;margin-top:4px;text-align:center;&quot;&gt;&lt;b&gt;CreateOrdeRequest&lt;/b&gt;&lt;br&gt;&lt;/p&gt;&lt;hr size=&quot;1&quot; style=&quot;border-style:solid;&quot;&gt;&lt;div style=&quot;height:2px;&quot;&gt;&lt;/div&gt;&lt;hr size=&quot;1&quot; style=&quot;border-style:solid;&quot;&gt;&lt;div style=&quot;height:2px;&quot;&gt;&lt;br&gt;&lt;/div&gt;" style="verticalAlign=top;align=left;overflow=fill;html=1;whiteSpace=wrap;" vertex="1" parent="cMUBH3cneGOwtmGwNx__-18">
          <mxGeometry x="13.32" y="65" width="156.68" height="65" as="geometry" />
        </mxCell>
        <mxCell id="cMUBH3cneGOwtmGwNx__-22" value="&lt;p style=&quot;margin:0px;margin-top:4px;text-align:center;&quot;&gt;&lt;b&gt;CreateOrdeDetailRequest&lt;/b&gt;&lt;br&gt;&lt;/p&gt;&lt;hr size=&quot;1&quot; style=&quot;border-style:solid;&quot;&gt;&lt;div style=&quot;height:2px;&quot;&gt;&lt;/div&gt;&lt;hr size=&quot;1&quot; style=&quot;border-style:solid;&quot;&gt;&lt;div style=&quot;height:2px;&quot;&gt;&lt;br&gt;&lt;/div&gt;" style="verticalAlign=top;align=left;overflow=fill;html=1;whiteSpace=wrap;" vertex="1" parent="cMUBH3cneGOwtmGwNx__-18">
          <mxGeometry x="19.5" y="175" width="156.68" height="65" as="geometry" />
        </mxCell>
        <mxCell id="cMUBH3cneGOwtmGwNx__-29" value="" style="group" vertex="1" connectable="0" parent="1">
          <mxGeometry x="1550" y="570" width="420" height="385" as="geometry" />
        </mxCell>
        <mxCell id="cMUBH3cneGOwtmGwNx__-32" value="&lt;p style=&quot;margin:0px;margin-top:4px;text-align:center;&quot;&gt;&lt;b&gt;OrderController&lt;/b&gt;&lt;/p&gt;&lt;hr size=&quot;1&quot; style=&quot;border-style:solid;&quot;&gt;&lt;div style=&quot;height:2px;&quot;&gt;&lt;/div&gt;&lt;hr size=&quot;1&quot; style=&quot;border-style:solid;&quot;&gt;&lt;div style=&quot;height:2px;&quot;&gt;&lt;br&gt;&lt;/div&gt;" style="verticalAlign=top;align=left;overflow=fill;html=1;whiteSpace=wrap;" vertex="1" parent="cMUBH3cneGOwtmGwNx__-29">
          <mxGeometry x="50" y="60" width="140" height="60" as="geometry" />
        </mxCell>
        <mxCell id="cMUBH3cneGOwtmGwNx__-33" value="&lt;p style=&quot;margin:0px;margin-top:4px;text-align:center;&quot;&gt;&lt;b&gt;OrderDetailController&lt;/b&gt;&lt;/p&gt;&lt;hr size=&quot;1&quot; style=&quot;border-style:solid;&quot;&gt;&lt;div style=&quot;height:2px;&quot;&gt;&lt;/div&gt;&lt;hr size=&quot;1&quot; style=&quot;border-style:solid;&quot;&gt;&lt;div style=&quot;height:2px;&quot;&gt;&lt;br&gt;&lt;/div&gt;" style="verticalAlign=top;align=left;overflow=fill;html=1;whiteSpace=wrap;" vertex="1" parent="cMUBH3cneGOwtmGwNx__-29">
          <mxGeometry x="50" y="160" width="140" height="60" as="geometry" />
        </mxCell>
        <mxCell id="cMUBH3cneGOwtmGwNx__-34" value="" style="endArrow=none;html=1;rounded=0;exitX=0.5;exitY=0;exitDx=0;exitDy=0;entryX=0.5;entryY=1;entryDx=0;entryDy=0;" edge="1" parent="cMUBH3cneGOwtmGwNx__-29" source="cMUBH3cneGOwtmGwNx__-33" target="cMUBH3cneGOwtmGwNx__-32">
          <mxGeometry width="50" height="50" relative="1" as="geometry">
            <mxPoint x="-10" y="340" as="sourcePoint" />
            <mxPoint x="40" y="290" as="targetPoint" />
          </mxGeometry>
        </mxCell>
        <mxCell id="cMUBH3cneGOwtmGwNx__-30" value="&lt;font style=&quot;font-size: 20px;&quot;&gt;Components&lt;/font&gt;" style="text;html=1;align=center;verticalAlign=middle;resizable=0;points=[];autosize=1;strokeColor=none;fillColor=none;" vertex="1" parent="cMUBH3cneGOwtmGwNx__-29">
          <mxGeometry x="-50" y="319.99797612884663" width="140" height="40" as="geometry" />
        </mxCell>
        <mxCell id="cMUBH3cneGOwtmGwNx__-41" value="" style="endArrow=open;endFill=0;endSize=12;html=1;rounded=0;exitX=1;exitY=0.25;exitDx=0;exitDy=0;entryX=0;entryY=0.5;entryDx=0;entryDy=0;" edge="1" parent="1" source="cMUBH3cneGOwtmGwNx__-22" target="cMUBH3cneGOwtmGwNx__-33">
          <mxGeometry width="160" relative="1" as="geometry">
            <mxPoint x="1101" y="666" as="sourcePoint" />
            <mxPoint x="1390" y="590" as="targetPoint" />
          </mxGeometry>
        </mxCell>
        <mxCell id="cMUBH3cneGOwtmGwNx__-42" value="" style="endArrow=open;endFill=0;endSize=12;html=1;rounded=0;exitX=1;exitY=0.25;exitDx=0;exitDy=0;entryX=0;entryY=0.25;entryDx=0;entryDy=0;" edge="1" parent="1" source="cMUBH3cneGOwtmGwNx__-21" target="cMUBH3cneGOwtmGwNx__-32">
          <mxGeometry width="160" relative="1" as="geometry">
            <mxPoint x="1310" y="730" as="sourcePoint" />
            <mxPoint x="1470" y="730" as="targetPoint" />
          </mxGeometry>
        </mxCell>
        <mxCell id="cMUBH3cneGOwtmGwNx__-43" value="" style="shape=folder;fontStyle=1;spacingTop=10;tabWidth=51;tabHeight=12;tabPosition=left;html=1;rounded=0;shadow=0;comic=0;labelBackgroundColor=none;strokeWidth=1;fillColor=none;fontFamily=Verdana;fontSize=10;align=center;" vertex="1" parent="1">
          <mxGeometry x="1510" y="930" width="370" height="330" as="geometry" />
        </mxCell>
        <mxCell id="cMUBH3cneGOwtmGwNx__-44" value="&lt;font style=&quot;font-size: 20px;&quot;&gt;Client&lt;/font&gt;" style="text;html=1;align=center;verticalAlign=middle;resizable=0;points=[];autosize=1;strokeColor=none;fillColor=none;" vertex="1" parent="1">
          <mxGeometry x="1540" y="955" width="70" height="40" as="geometry" />
        </mxCell>
        <mxCell id="cMUBH3cneGOwtmGwNx__-45" value="" style="shape=folder;fontStyle=1;spacingTop=10;tabWidth=51;tabHeight=12;tabPosition=left;html=1;rounded=0;shadow=0;comic=0;labelBackgroundColor=none;strokeWidth=1;fillColor=none;fontFamily=Verdana;fontSize=10;align=center;" vertex="1" parent="1">
          <mxGeometry x="1540" y="990" width="310" height="250" as="geometry" />
        </mxCell>
        <mxCell id="cMUBH3cneGOwtmGwNx__-46" value="&lt;font style=&quot;font-size: 20px;&quot;&gt;my-order&lt;/font&gt;" style="text;html=1;align=center;verticalAlign=middle;resizable=0;points=[];autosize=1;strokeColor=none;fillColor=none;" vertex="1" parent="1">
          <mxGeometry x="1550" y="1010" width="100" height="40" as="geometry" />
        </mxCell>
        <mxCell id="cMUBH3cneGOwtmGwNx__-31" value="" style="shape=folder;fontStyle=1;spacingTop=10;tabWidth=51;tabHeight=12;tabPosition=left;html=1;rounded=0;shadow=0;comic=0;labelBackgroundColor=none;strokeWidth=1;fillColor=none;fontFamily=Verdana;fontSize=10;align=center;" vertex="1" parent="1">
          <mxGeometry x="1480" y="870" width="450" height="415" as="geometry" />
        </mxCell>
      </root>
    </mxGraphModel>
  </diagram>
</mxfile>
